<svg width="32" height="32" viewBox="0 0 32 32" fill="none" xmlns="http://www.w3.org/2000/svg">
<path fill-rule="evenodd" clip-rule="evenodd" d="M3.29196 9.29202C3.38485 9.19889 3.4952 9.125 3.61669 9.07459C3.73818 9.02418 3.86842 8.99823 3.99996 8.99823C4.13149 8.99823 4.26173 9.02418 4.38322 9.07459C4.50471 9.125 4.61507 9.19889 4.70796 9.29202L16 20.586L27.292 9.29202C27.3849 9.19904 27.4953 9.12529 27.6168 9.07497C27.7383 9.02465 27.8685 8.99875 28 8.99875C28.1314 8.99875 28.2616 9.02465 28.3831 9.07497C28.5046 9.12529 28.615 9.19904 28.708 9.29202C28.8009 9.38499 28.8747 9.49537 28.925 9.61685C28.9753 9.73833 29.0012 9.86853 29.0012 10C29.0012 10.1315 28.9753 10.2617 28.925 10.3832C28.8747 10.5047 28.8009 10.615 28.708 10.708L16.708 22.708C16.6151 22.8011 16.5047 22.875 16.3832 22.9254C16.2617 22.9759 16.1315 23.0018 16 23.0018C15.8684 23.0018 15.7382 22.9759 15.6167 22.9254C15.4952 22.875 15.3848 22.8011 15.292 22.708L3.29196 10.708C3.19883 10.6151 3.12494 10.5048 3.07453 10.3833C3.02412 10.2618 2.99817 10.1316 2.99817 10C2.99817 9.86848 3.02412 9.73824 3.07453 9.61675C3.12494 9.49526 3.19883 9.38491 3.29196 9.29202Z" fill="black" style="fill:black;fill-opacity:1;"/>
</svg>
