<svg width="24" height="24" viewBox="0 0 24 24" fill="none" xmlns="http://www.w3.org/2000/svg">
<path d="M23.4286 12C23.4286 8.96894 22.2245 6.06204 20.0812 3.91876C17.9379 1.77549 15.031 0.571411 12 0.571411V23.4286C15.031 23.4286 17.9379 22.2245 20.0812 20.0812C22.2245 17.9379 23.4286 15.031 23.4286 12Z" fill="black" style="fill:black;fill-opacity:1;"/>
<path d="M22.8571 12C22.8571 9.12051 21.7136 6.35865 19.6775 4.32254C17.7765 2.42154 15.2427 1.29918 12.5714 1.15848V22.8404C15.2427 22.6997 17.7765 21.5784 19.6775 19.6775C21.7136 17.6413 22.8571 14.8795 22.8571 12ZM1.14286 12C1.14286 14.8795 2.28644 17.6413 4.32254 19.6775C6.22354 21.5784 8.75728 22.6997 11.4286 22.8404V1.15848C8.75725 1.29918 6.22355 2.42154 4.32254 4.32254C2.28644 6.35865 1.14286 9.12051 1.14286 12ZM24 12C24 15.1826 22.7359 18.2351 20.4855 20.4855C18.2351 22.7359 15.1826 24 12 24C8.8174 24 5.76495 22.7359 3.51451 20.4855C1.26407 18.2351 0 15.1826 0 12C0 8.8174 1.26407 5.76495 3.51451 3.51451C5.76495 1.26407 8.8174 0 12 0C15.1826 0 18.2351 1.26407 20.4855 3.51451C22.7359 5.76495 24 8.8174 24 12Z" fill="black" style="fill:black;fill-opacity:1;"/>
</svg>
